<mxfile host="app.diagrams.net" modified="2024-06-17T07:54:43.482Z" agent="Mozilla/5.0 (Windows NT 10.0; Win64; x64) AppleWebKit/537.36 (KHTML, like Gecko) Chrome/126.0.0.0 Safari/537.36" etag="JgzpDpqzR0Jnlb0gkPKZ" version="24.5.4" type="github">
  <diagram name="Page-1" id="M1MSRtWpYcfjrtEPGMm0">
    <mxGraphModel dx="1434" dy="746" grid="1" gridSize="10" guides="1" tooltips="1" connect="1" arrows="1" fold="1" page="1" pageScale="1" pageWidth="827" pageHeight="1169" math="0" shadow="0">
      <root>
        <mxCell id="0" />
        <mxCell id="1" parent="0" />
        <mxCell id="enX6VT0VWTukfBibxdo3-1" value="" style="whiteSpace=wrap;html=1;aspect=fixed;" vertex="1" parent="1">
          <mxGeometry x="207" y="203" width="414" height="414" as="geometry" />
        </mxCell>
        <mxCell id="enX6VT0VWTukfBibxdo3-2" value="User" style="shape=umlActor;verticalLabelPosition=bottom;verticalAlign=top;html=1;outlineConnect=0;" vertex="1" parent="1">
          <mxGeometry x="140" y="380" width="30" height="60" as="geometry" />
        </mxCell>
        <mxCell id="enX6VT0VWTukfBibxdo3-3" value="Look at the list of WSL" style="ellipse;whiteSpace=wrap;html=1;" vertex="1" parent="1">
          <mxGeometry x="250" y="375" width="110" height="70" as="geometry" />
        </mxCell>
        <mxCell id="enX6VT0VWTukfBibxdo3-4" value="" style="endArrow=none;html=1;rounded=0;entryX=0;entryY=0.5;entryDx=0;entryDy=0;exitX=0.5;exitY=0.5;exitDx=0;exitDy=0;exitPerimeter=0;" edge="1" parent="1" source="enX6VT0VWTukfBibxdo3-2" target="enX6VT0VWTukfBibxdo3-3">
          <mxGeometry width="50" height="50" relative="1" as="geometry">
            <mxPoint x="157" y="420" as="sourcePoint" />
            <mxPoint x="207" y="370" as="targetPoint" />
          </mxGeometry>
        </mxCell>
        <mxCell id="enX6VT0VWTukfBibxdo3-5" value="Start/Stop/Delete&lt;div&gt;&lt;span style=&quot;background-color: initial;&quot;&gt;&amp;nbsp;WSL&lt;/span&gt;&lt;/div&gt;" style="ellipse;whiteSpace=wrap;html=1;" vertex="1" parent="1">
          <mxGeometry x="359" y="250" width="110" height="70" as="geometry" />
        </mxCell>
        <mxCell id="enX6VT0VWTukfBibxdo3-6" value="Transfer files to active WSL" style="ellipse;whiteSpace=wrap;html=1;" vertex="1" parent="1">
          <mxGeometry x="360" y="500" width="110" height="70" as="geometry" />
        </mxCell>
        <mxCell id="enX6VT0VWTukfBibxdo3-7" value="Install apps on active WSL" style="ellipse;whiteSpace=wrap;html=1;" vertex="1" parent="1">
          <mxGeometry x="470" y="320" width="110" height="70" as="geometry" />
        </mxCell>
        <mxCell id="enX6VT0VWTukfBibxdo3-8" value="Look at the RAM mem &amp;amp; CPU usage" style="ellipse;whiteSpace=wrap;html=1;" vertex="1" parent="1">
          <mxGeometry x="470" y="430" width="110" height="70" as="geometry" />
        </mxCell>
        <mxCell id="enX6VT0VWTukfBibxdo3-9" value="" style="endArrow=classic;html=1;rounded=0;exitX=0;exitY=1;exitDx=0;exitDy=0;entryX=0.5;entryY=0;entryDx=0;entryDy=0;dashed=1;" edge="1" parent="1" source="enX6VT0VWTukfBibxdo3-5" target="enX6VT0VWTukfBibxdo3-3">
          <mxGeometry width="50" height="50" relative="1" as="geometry">
            <mxPoint x="390" y="310" as="sourcePoint" />
            <mxPoint x="440" y="260" as="targetPoint" />
          </mxGeometry>
        </mxCell>
        <mxCell id="enX6VT0VWTukfBibxdo3-13" value="&amp;lt;&amp;lt; extend &amp;gt;&amp;gt;" style="edgeLabel;html=1;align=center;verticalAlign=middle;resizable=0;points=[];rotation=-43;" vertex="1" connectable="0" parent="enX6VT0VWTukfBibxdo3-9">
          <mxGeometry x="-0.0493" relative="1" as="geometry">
            <mxPoint x="-1" y="-11" as="offset" />
          </mxGeometry>
        </mxCell>
        <mxCell id="enX6VT0VWTukfBibxdo3-10" value="" style="endArrow=classic;html=1;rounded=0;entryX=1;entryY=0;entryDx=0;entryDy=0;exitX=0;exitY=0.5;exitDx=0;exitDy=0;dashed=1;" edge="1" parent="1" source="enX6VT0VWTukfBibxdo3-7" target="enX6VT0VWTukfBibxdo3-3">
          <mxGeometry width="50" height="50" relative="1" as="geometry">
            <mxPoint x="390" y="310" as="sourcePoint" />
            <mxPoint x="440" y="260" as="targetPoint" />
          </mxGeometry>
        </mxCell>
        <mxCell id="enX6VT0VWTukfBibxdo3-14" value="&amp;lt;&amp;lt; extend &amp;gt;&amp;gt;" style="edgeLabel;html=1;align=center;verticalAlign=middle;resizable=0;points=[];rotation=-14;" vertex="1" connectable="0" parent="enX6VT0VWTukfBibxdo3-10">
          <mxGeometry x="0.0251" y="-2" relative="1" as="geometry">
            <mxPoint x="9" y="-13" as="offset" />
          </mxGeometry>
        </mxCell>
        <mxCell id="enX6VT0VWTukfBibxdo3-11" value="" style="endArrow=classic;html=1;rounded=0;entryX=1;entryY=1;entryDx=0;entryDy=0;exitX=0;exitY=0.5;exitDx=0;exitDy=0;dashed=1;" edge="1" parent="1" source="enX6VT0VWTukfBibxdo3-8" target="enX6VT0VWTukfBibxdo3-3">
          <mxGeometry width="50" height="50" relative="1" as="geometry">
            <mxPoint x="459.8799999999999" y="460" as="sourcePoint" />
            <mxPoint x="450" y="517" as="targetPoint" />
          </mxGeometry>
        </mxCell>
        <mxCell id="enX6VT0VWTukfBibxdo3-15" value="&amp;lt;&amp;lt; extend &amp;gt;&amp;gt;" style="edgeLabel;html=1;align=center;verticalAlign=middle;resizable=0;points=[];rotation=14;" vertex="1" connectable="0" parent="enX6VT0VWTukfBibxdo3-11">
          <mxGeometry x="-0.192" relative="1" as="geometry">
            <mxPoint x="-4" y="-13" as="offset" />
          </mxGeometry>
        </mxCell>
        <mxCell id="enX6VT0VWTukfBibxdo3-12" value="" style="endArrow=classic;html=1;rounded=0;entryX=0.5;entryY=1;entryDx=0;entryDy=0;exitX=0;exitY=0;exitDx=0;exitDy=0;dashed=1;" edge="1" parent="1" source="enX6VT0VWTukfBibxdo3-6" target="enX6VT0VWTukfBibxdo3-3">
          <mxGeometry width="50" height="50" relative="1" as="geometry">
            <mxPoint x="340" y="520" as="sourcePoint" />
            <mxPoint x="390" y="470" as="targetPoint" />
          </mxGeometry>
        </mxCell>
        <mxCell id="enX6VT0VWTukfBibxdo3-16" value="&amp;lt;&amp;lt; extend &amp;gt;&amp;gt;" style="edgeLabel;html=1;align=center;verticalAlign=middle;resizable=0;points=[];rotation=42;" vertex="1" connectable="0" parent="enX6VT0VWTukfBibxdo3-12">
          <mxGeometry x="0.0147" y="-3" relative="1" as="geometry">
            <mxPoint x="8" y="-5" as="offset" />
          </mxGeometry>
        </mxCell>
      </root>
    </mxGraphModel>
  </diagram>
</mxfile>
